<svg xmlns="http://www.w3.org/2000/svg">
  <rect width="1400" height="800" fill="#ffffff" style="stroke-width:5; stroke:#00ff00" />
  <polyline fill="#ffffff" style="stroke-width:4; stroke:#000000" points="50,50 50,750 1350,750" />
  <line fill="#ffffff" style="stroke-width:4; stroke:#000000" x1="91.93548387096774" y1="750" x2="91.93548387096774" y2="760" />
  <line fill="#ffffff" style="stroke-width:4; stroke:#000000" x1="133.8709677419355" y1="750" x2="133.8709677419355" y2="760" />
  <line fill="#ffffff" style="stroke-width:4; stroke:#000000" x1="175.80645161290323" y1="750" x2="175.80645161290323" y2="760" />
  <line fill="#ffffff" style="stroke-width:4; stroke:#000000" x1="217.74193548387098" y1="750" x2="217.74193548387098" y2="760" />
  <line fill="#ffffff" style="stroke-width:4; stroke:#000000" x1="259.6774193548387" y1="750" x2="259.6774193548387" y2="760" />
  <line fill="#ffffff" style="stroke-width:4; stroke:#000000" x1="301.61290322580646" y1="750" x2="301.61290322580646" y2="760" />
  <line fill="#ffffff" style="stroke-width:4; stroke:#000000" x1="343.5483870967742" y1="750" x2="343.5483870967742" y2="760" />
  <line fill="#ffffff" style="stroke-width:4; stroke:#000000" x1="385.48387096774195" y1="750" x2="385.48387096774195" y2="760" />
  <line fill="#ffffff" style="stroke-width:4; stroke:#000000" x1="427.4193548387097" y1="750" x2="427.4193548387097" y2="760" />
  <line fill="#ffffff" style="stroke-width:4; stroke:#000000" x1="469.35483870967744" y1="750" x2="469.35483870967744" y2="760" />
  <line fill="#ffffff" style="stroke-width:4; stroke:#000000" x1="511.2903225806452" y1="750" x2="511.2903225806452" y2="760" />
  <line fill="#ffffff" style="stroke-width:4; stroke:#000000" x1="553.2258064516129" y1="750" x2="553.2258064516129" y2="760" />
  <line fill="#ffffff" style="stroke-width:4; stroke:#000000" x1="595.1612903225807" y1="750" x2="595.1612903225807" y2="760" />
  <line fill="#ffffff" style="stroke-width:4; stroke:#000000" x1="637.0967741935484" y1="750" x2="637.0967741935484" y2="760" />
  <line fill="#ffffff" style="stroke-width:4; stroke:#000000" x1="679.0322580645161" y1="750" x2="679.0322580645161" y2="760" />
  <line fill="#ffffff" style="stroke-width:4; stroke:#000000" x1="720.9677419354839" y1="750" x2="720.9677419354839" y2="760" />
  <line fill="#ffffff" style="stroke-width:4; stroke:#000000" x1="762.9032258064517" y1="750" x2="762.9032258064517" y2="760" />
  <line fill="#ffffff" style="stroke-width:4; stroke:#000000" x1="804.8387096774194" y1="750" x2="804.8387096774194" y2="760" />
  <line fill="#ffffff" style="stroke-width:4; stroke:#000000" x1="846.7741935483871" y1="750" x2="846.7741935483871" y2="760" />
  <line fill="#ffffff" style="stroke-width:4; stroke:#000000" x1="888.7096774193549" y1="750" x2="888.7096774193549" y2="760" />
  <line fill="#ffffff" style="stroke-width:4; stroke:#000000" x1="930.6451612903227" y1="750" x2="930.6451612903227" y2="760" />
  <line fill="#ffffff" style="stroke-width:4; stroke:#000000" x1="972.5806451612904" y1="750" x2="972.5806451612904" y2="760" />
  <line fill="#ffffff" style="stroke-width:4; stroke:#000000" x1="1014.516129032258" y1="750" x2="1014.516129032258" y2="760" />
  <line fill="#ffffff" style="stroke-width:4; stroke:#000000" x1="1056.4516129032259" y1="750" x2="1056.4516129032259" y2="760" />
  <line fill="#ffffff" style="stroke-width:4; stroke:#000000" x1="1098.3870967741937" y1="750" x2="1098.3870967741937" y2="760" />
  <line fill="#ffffff" style="stroke-width:4; stroke:#000000" x1="1140.3225806451615" y1="750" x2="1140.3225806451615" y2="760" />
  <line fill="#ffffff" style="stroke-width:4; stroke:#000000" x1="1182.258064516129" y1="750" x2="1182.258064516129" y2="760" />
  <line fill="#ffffff" style="stroke-width:4; stroke:#000000" x1="1224.1935483870968" y1="750" x2="1224.1935483870968" y2="760" />
  <line fill="#ffffff" style="stroke-width:4; stroke:#000000" x1="1266.1290322580646" y1="750" x2="1266.1290322580646" y2="760" />
  <line fill="#ffffff" style="stroke-width:4; stroke:#000000" x1="1308.0645161290322" y1="750" x2="1308.0645161290322" y2="760" />
  <line fill="#ffffff" style="stroke-width:4; stroke:#000000" x1="50" y1="643.939393939394" x2="40" y2="643.939393939394" />
  <line fill="#ffffff" style="stroke-width:4; stroke:#000000" x1="50" y1="537.8787878787879" x2="40" y2="537.8787878787879" />
  <line fill="#ffffff" style="stroke-width:4; stroke:#000000" x1="50" y1="431.8181818181818" x2="40" y2="431.8181818181818" />
  <line fill="#ffffff" style="stroke-width:4; stroke:#000000" x1="50" y1="325.75757575757575" x2="40" y2="325.75757575757575" />
  <line fill="#ffffff" style="stroke-width:4; stroke:#000000" x1="50" y1="219.69696969696975" x2="40" y2="219.69696969696975" />
  <line fill="#ffffff" style="stroke-width:4; stroke:#000000" x1="50" y1="113.63636363636363" x2="40" y2="113.63636363636363" />
  <text x="750" y="750" fill="#000000" font-size="35">Day number</text>
  <text x="50" y="300" fill="#000000" font-size="35" transform="rotate(-90,50,300)">Cumulative spent</text>
  <line x1="91.93548387096774" y1="728.7878787878788" x2="1350" y2="92.4242424242425" style="stroke:#000000;stroke-width:4;stroke-dasharray:30" />
  <circle r="6" fill="#ffffff" style="stroke:#000000;stroke-width:4" cx="91.93548387096774" cy="668.3545454545455" />
  <circle r="6" fill="#ffffff" style="stroke:#000000;stroke-width:4" cx="133.8709677419355" cy="635.4969696969697" />
  <circle r="6" fill="#ffffff" style="stroke:#000000;stroke-width:4" cx="175.80645161290323" cy="635.4969696969697" />
  <circle r="6" fill="#ffffff" style="stroke:#000000;stroke-width:4" cx="217.74193548387098" cy="635.4969696969697" />
  <circle r="6" fill="#ffffff" style="stroke:#000000;stroke-width:4" cx="259.6774193548387" cy="635.4969696969697" />
  <circle r="6" fill="#ffffff" style="stroke:#000000;stroke-width:4" cx="301.61290322580646" cy="560.6181818181818" />
  <circle r="6" fill="#ffffff" style="stroke:#000000;stroke-width:4" cx="343.5483870967742" cy="560.6181818181818" />
  <circle r="6" fill="#ffffff" style="stroke:#000000;stroke-width:4" cx="385.48387096774195" cy="560.6181818181818" />
  <circle r="6" fill="#ffffff" style="stroke:#000000;stroke-width:4" cx="427.4193548387097" cy="560.6181818181818" />
  <circle r="6" fill="#ffffff" style="stroke:#000000;stroke-width:4" cx="469.35483870967744" cy="515.1393939393939" />
  <circle r="6" fill="#ffffff" style="stroke:#000000;stroke-width:4" cx="511.2903225806452" cy="515.1393939393939" />
  <circle r="6" fill="#ffffff" style="stroke:#000000;stroke-width:4" cx="553.2258064516129" cy="515.1393939393939" />
  <circle r="6" fill="#ffffff" style="stroke:#000000;stroke-width:4" cx="595.1612903225807" cy="515.1393939393939" />
  <circle r="6" fill="#ffffff" style="stroke:#000000;stroke-width:4" cx="637.0967741935484" cy="498.4878787878788" />
  <circle r="6" fill="#ffffff" style="stroke:#000000;stroke-width:4" cx="679.0322580645161" cy="480.4787878787879" />
  <circle r="6" fill="#ffffff" style="stroke:#000000;stroke-width:4" cx="720.9677419354839" cy="480.4787878787879" />
  <circle r="6" fill="#ffffff" style="stroke:#000000;stroke-width:4" cx="762.9032258064517" cy="433.6212121212122" />
  <circle r="6" fill="#ffffff" style="stroke:#000000;stroke-width:4" cx="804.8387096774194" cy="433.6212121212122" />
  <circle r="6" fill="#ffffff" style="stroke:#000000;stroke-width:4" cx="846.7741935483871" cy="433.6212121212122" />
  <circle r="6" fill="#ffffff" style="stroke:#000000;stroke-width:4" cx="888.7096774193549" cy="433.6212121212122" />
  <circle r="6" fill="#ffffff" style="stroke:#000000;stroke-width:4" cx="930.6451612903227" cy="362.30606060606067" />
  <circle r="6" fill="#ffffff" style="stroke:#000000;stroke-width:4" cx="972.5806451612904" cy="293.30303030303037" />
  <circle r="6" fill="#ffffff" style="stroke:#000000;stroke-width:4" cx="1014.516129032258" cy="293.30303030303037" />
  <circle r="6" fill="#ffffff" style="stroke:#000000;stroke-width:4" cx="1056.4516129032259" cy="276.9272727272728" />
  <circle r="6" fill="#ffffff" style="stroke:#000000;stroke-width:4" cx="1098.3870967741937" cy="276.9272727272728" />
  <circle r="6" fill="#ffffff" style="stroke:#000000;stroke-width:4" cx="1140.3225806451615" cy="276.9272727272728" />
  <circle r="6" fill="#ffffff" style="stroke:#000000;stroke-width:4" cx="1182.258064516129" cy="276.9272727272728" />
  <circle r="6" fill="#ffffff" style="stroke:#000000;stroke-width:4" cx="1224.1935483870968" cy="276.9272727272728" />
  <circle r="6" fill="#ffffff" style="stroke:#000000;stroke-width:4" cx="1266.1290322580646" cy="188.72727272727286" />
  <circle r="6" fill="#ffffff" style="stroke:#000000;stroke-width:4" cx="1308.0645161290322" cy="188.72727272727286" />
  <circle r="6" fill="#ffffff" style="stroke:#000000;stroke-width:4" cx="1350" cy="134.74242424242436" />
  <polyline fill="none" style="stroke-width:3; stroke:#000000" points="91.93548387096774,668.3545454545455 133.8709677419355,635.4969696969697 175.80645161290323,635.4969696969697 217.74193548387098,635.4969696969697 259.6774193548387,635.4969696969697 301.61290322580646,560.6181818181818 343.5483870967742,560.6181818181818 385.48387096774195,560.6181818181818 427.4193548387097,560.6181818181818 469.35483870967744,515.1393939393939 511.2903225806452,515.1393939393939 553.2258064516129,515.1393939393939 595.1612903225807,515.1393939393939 637.0967741935484,498.4878787878788 679.0322580645161,480.4787878787879 720.9677419354839,480.4787878787879 762.9032258064517,433.6212121212122 804.8387096774194,433.6212121212122 846.7741935483871,433.6212121212122 888.7096774193549,433.6212121212122 930.6451612903227,362.30606060606067 972.5806451612904,293.30303030303037 1014.516129032258,293.30303030303037 1056.4516129032259,276.9272727272728 1098.3870967741937,276.9272727272728 1140.3225806451615,276.9272727272728 1182.258064516129,276.9272727272728 1224.1935483870968,276.9272727272728 1266.1290322580646,188.72727272727286 1308.0645161290322,188.72727272727286 1350,134.74242424242436" />
</svg>
