<svg xmlns="http://www.w3.org/2000/svg">
  <rect width="1400" height="800" fill="#ffffff" style="stroke-width:5; stroke:#00ff00" />
  <path d="M 0.0 0.0 L 0 320 A 320 320 0 0 0 277.48961025133815 159.3722566903049 Z" transform="translate(700,400)" fill="#D74242" style="stroke-width:3; stroke:#000000" />
  <path d="M 0.0 0.0 L 277.48961025133815 159.3722566903049 A 320 320 0 0 0 127.54426315801118 -293.4833230960151 Z" transform="translate(700,400)" fill="#42D76D" style="stroke-width:3; stroke:#000000" />
  <path d="M 0.0 0.0 L 127.54426315801118 -293.4833230960151 A 320 320 0 0 0 -238.7373229529449 -213.0832950497558 Z" transform="translate(700,400)" fill="#9942D7" style="stroke-width:3; stroke:#000000" />
  <path d="M 0.0 0.0 L -238.7373229529449 -213.0832950497558 A 320 320 0 0 0 -297.62857353026413 -117.5467235542537 Z" transform="translate(700,400)" fill="#D7C442" style="stroke-width:3; stroke:#000000" />
  <path d="M 0.0 0.0 L -297.62857353026413 -117.5467235542537 A 320 320 0 0 0 2.0583969915860948E-13 320 Z" transform="translate(700,400)" fill="#42BED7" style="stroke-width:3; stroke:#000000" />
  <rect x="1030" y="410" width="25" height="25" fill="#D74242" style="stroke-width:3; stroke:#000000" />
  <text x="1065" y="435" fill="#000000" font-size="25" font-family="sans-serif" text-anchor="top" dominant-baseline="middle">Foreign small</text>
  <rect x="1030" y="445" width="25" height="25" fill="#42D76D" style="stroke-width:3; stroke:#000000" />
  <text x="1065" y="470" fill="#000000" font-size="25" font-family="sans-serif" text-anchor="top" dominant-baseline="middle">Foreign large</text>
  <rect x="1030" y="480" width="25" height="25" fill="#9942D7" style="stroke-width:3; stroke:#000000" />
  <text x="1065" y="505" fill="#000000" font-size="25" font-family="sans-serif" text-anchor="top" dominant-baseline="middle">Domestic small</text>
  <rect x="1030" y="515" width="25" height="25" fill="#D7C442" style="stroke-width:3; stroke:#000000" />
  <text x="1065" y="540" fill="#000000" font-size="25" font-family="sans-serif" text-anchor="top" dominant-baseline="middle">Domestic mid</text>
  <rect x="1030" y="550" width="25" height="25" fill="#42BED7" style="stroke-width:3; stroke:#000000" />
  <text x="1065" y="575" fill="#000000" font-size="25" font-family="sans-serif" text-anchor="top" dominant-baseline="middle">Domestic large</text>
</svg>